<?xml version="1.0" encoding="UTF-8"?>
<svg xmlns="http://www.w3.org/2000/svg" xmlns:xlink="http://www.w3.org/1999/xlink" viewBox="0 0 48 48" width="48px" height="48px">
<g id="surface25592477">
<path style=" stroke:none;fill-rule:nonzero;" d="M 21 8.25 C 20.171875 8.25 19.5 8.921875 19.5 9.75 L 19.5 10.5 L 9.75 10.5 C 8.921875 10.5 8.25 11.171875 8.25 12 C 8.25 12.828125 8.921875 13.5 9.75 13.5 L 10.621094 13.5 L 12.527344 36.375 C 12.71875 38.6875 14.6875 40.5 17.011719 40.5 L 30.988281 40.5 C 33.3125 40.5 35.28125 38.6875 35.472656 36.375 L 37.378906 13.5 L 38.25 13.5 C 39.078125 13.5 39.75 12.828125 39.75 12 C 39.75 11.171875 39.078125 10.5 38.25 10.5 L 28.5 10.5 L 28.5 9.75 C 28.5 8.921875 27.828125 8.25 27 8.25 Z M 13.628906 13.5 L 34.371094 13.5 L 32.484375 36.125 C 32.417969 36.894531 31.765625 37.5 30.988281 37.5 L 17.011719 37.5 C 16.238281 37.5 15.578125 36.894531 15.515625 36.125 Z M 13.628906 13.5 "/>
</g>
</svg>
